<svg width="28" height="30" viewBox="0 0 28 30" fill="none" xmlns="http://www.w3.org/2000/svg">
<path d="M14 15C18.1426 15 21.5 11.6426 21.5 7.5C21.5 3.35742 18.1426 0 14 0C9.85742 0 6.5 3.35742 6.5 7.5C6.5 11.6426 9.85742 15 14 15ZM19.25 16.875H18.2715C16.9707 17.4727 15.5234 17.8125 14 17.8125C12.4766 17.8125 11.0352 17.4727 9.72852 16.875H8.75C4.40234 16.875 0.875 20.4023 0.875 24.75V27.1875C0.875 28.7402 2.13477 30 3.6875 30H24.3125C25.8652 30 27.125 28.7402 27.125 27.1875V24.75C27.125 20.4023 23.5977 16.875 19.25 16.875Z" fill="#0058E5"/>
</svg>
