<svg width="60" height="59" viewBox="0 0 60 59" fill="none" xmlns="http://www.w3.org/2000/svg">
<path d="M30 58.5625C13.9453 58.5625 0.9375 45.5547 0.9375 29.5C0.9375 13.4453 13.9453 0.4375 30 0.4375C46.0547 0.4375 59.0625 13.4453 59.0625 29.5C59.0625 45.5547 46.0547 58.5625 30 58.5625ZM16.6406 31.4922L32.4609 47.4297C33.6328 48.4844 35.3906 48.4844 36.4453 47.4297L38.4375 45.4375C39.4922 44.3828 39.4922 42.5078 38.4375 41.4531L26.4844 29.5L38.4375 17.6641C39.4922 16.4922 39.4922 14.7344 38.4375 13.6797L36.4453 11.6875C35.3906 10.6328 33.5156 10.6328 32.4609 11.6875L16.6406 27.5078C15.4688 28.6797 15.4688 30.4375 16.6406 31.4922Z" fill="#DEDBDB"/>
</svg>
