<svg width="28" height="30" viewBox="0 0 28 30" fill="none" xmlns="http://www.w3.org/2000/svg">
<path d="M21.5 9.375V7.5C21.5 3.36445 18.1355 0 14 0C9.86445 0 6.5 3.36445 6.5 7.5V9.375H0.875V25.3125C0.875 27.9013 2.97365 30 5.5625 30H22.4375C25.0263 30 27.125 27.9013 27.125 25.3125V9.375H21.5ZM10.25 7.5C10.25 5.43223 11.9322 3.75 14 3.75C16.0678 3.75 17.75 5.43223 17.75 7.5V9.375H10.25V7.5ZM19.625 14.5312C18.8483 14.5312 18.2188 13.9017 18.2188 13.125C18.2188 12.3483 18.8483 11.7188 19.625 11.7188C20.4017 11.7188 21.0312 12.3483 21.0312 13.125C21.0312 13.9017 20.4017 14.5312 19.625 14.5312ZM8.375 14.5312C7.59834 14.5312 6.96875 13.9017 6.96875 13.125C6.96875 12.3483 7.59834 11.7188 8.375 11.7188C9.15166 11.7188 9.78125 12.3483 9.78125 13.125C9.78125 13.9017 9.15166 14.5312 8.375 14.5312Z" fill="#0058E5"/>
</svg>
