<svg width="200" height="57" viewBox="0 0 200 57" fill="none" xmlns="http://www.w3.org/2000/svg">
<g clip-path="url(#clip0_15_169)">
<path d="M0 49.6614V16.0497C0 15.5305 0.428894 15.1016 0.948081 15.1016C1.46727 15.1016 1.89616 15.5305 1.89616 16.0497V49.6614C1.89616 51.061 2.4605 52.3476 3.386 53.2731C4.31151 54.1986 5.59819 54.763 6.99774 54.763C9.84199 54.763 12.0767 52.3476 12.0767 49.5034V30.0226C12.0767 29.5034 12.5056 29.0745 13.0248 29.0745C13.544 29.0745 13.9729 29.5034 13.9729 30.0226V49.4808C13.9729 53.3409 10.9255 56.614 7.06546 56.6366C5.10158 56.6591 3.34086 55.8691 2.05418 54.5824C0.790068 53.3409 0 51.6027 0 49.6614Z" fill="#0058E5"/>
<path d="M10.5192 26.2077C10.7224 26.2077 10.903 26.3657 10.903 26.5914V50.9932C10.903 51.1964 10.745 51.377 10.5192 51.377C10.2935 51.377 10.1355 51.219 10.1355 50.9932V26.5689C10.1355 26.3657 10.2935 26.2077 10.5192 26.2077Z" fill="#00327A"/>
<path d="M8.7585 24.3115C8.96166 24.3115 9.14225 24.4695 9.14225 24.6953V52.5057C9.14225 52.7088 8.98424 52.8894 8.7585 52.8894C8.55534 52.8894 8.37476 52.7314 8.37476 52.5057V24.6953C8.37476 24.4695 8.53277 24.3115 8.7585 24.3115Z" fill="#00327A"/>
<path d="M6.99776 21.6704C7.20092 21.6704 7.38151 21.8285 7.38151 22.0542V53.2731C7.38151 53.4763 7.22349 53.6569 6.99776 53.6569C6.7946 53.6569 6.61401 53.4989 6.61401 53.2731V22.0316C6.61401 21.8285 6.77203 21.6704 6.99776 21.6704Z" fill="#00327A"/>
<path d="M5.21456 20.158C5.41772 20.158 5.5983 20.316 5.5983 20.5418V52.5056C5.5983 52.7088 5.44029 52.8894 5.21456 52.8894C5.0114 52.8894 4.83081 52.7314 4.83081 52.5056V20.5418C4.85338 20.316 5.0114 20.158 5.21456 20.158Z" fill="#00327A"/>
<path d="M3.45382 17.5169C3.65698 17.5169 3.83756 17.675 3.83756 17.9007V50.9932C3.83756 51.1964 3.67955 51.377 3.45382 51.377C3.25066 51.377 3.07007 51.219 3.07007 50.9932V17.8781C3.09264 17.675 3.25066 17.5169 3.45382 17.5169Z" fill="#00327A"/>
<path d="M45.6885 6.99774V40.6095C45.6885 41.1287 45.2596 41.5576 44.7404 41.5576C44.2212 41.5576 43.7923 41.1287 43.7923 40.6095V6.99774C43.7923 5.59819 43.228 4.31151 42.3025 3.386C41.377 2.46049 40.0903 1.89616 38.6907 1.89616C35.8465 1.89616 33.6117 4.31151 33.6117 7.15576V26.6366C33.6117 27.1558 33.1828 27.5847 32.6637 27.5847C32.1445 27.5847 31.7156 27.1558 31.7156 26.6366V7.15576C31.7156 3.29571 34.763 0.0225715 38.623 -1.8939e-06C40.5869 -0.0225753 42.3476 0.767493 43.6343 2.05417C44.921 3.31828 45.6885 5.05643 45.6885 6.99774Z" fill="#0058E5"/>
<path d="M35.1919 30.4515C34.9887 30.4515 34.8081 30.2934 34.8081 30.0677V5.66591C34.8081 5.46275 34.9661 5.28217 35.1919 5.28217C35.395 5.28217 35.5756 5.44018 35.5756 5.66591V30.0677C35.553 30.2934 35.395 30.4515 35.1919 30.4515Z" fill="#00327A"/>
<path d="M36.9526 32.3476C36.7494 32.3476 36.5688 32.1896 36.5688 31.9639V4.15349C36.5688 3.95033 36.7269 3.76974 36.9526 3.76974C37.1558 3.76974 37.3363 3.92776 37.3363 4.15349V31.9639C37.3363 32.167 37.1558 32.3476 36.9526 32.3476Z" fill="#00327A"/>
<path d="M38.7133 34.9887C38.5102 34.9887 38.3296 34.8307 38.3296 34.605V3.40857C38.3296 3.20541 38.4876 3.02483 38.7133 3.02483C38.9391 3.02483 39.0971 3.18284 39.0971 3.40857V34.6275C39.0971 34.8081 38.9165 34.9887 38.7133 34.9887Z" fill="#00327A"/>
<path d="M40.4741 36.5011C40.2709 36.5011 40.0903 36.3431 40.0903 36.1174V4.15349C40.0903 3.95033 40.2483 3.76974 40.4741 3.76974C40.6772 3.76974 40.8578 3.92776 40.8578 4.15349V36.1174C40.8578 36.3205 40.6772 36.5011 40.4741 36.5011Z" fill="#00327A"/>
<path d="M42.2348 39.1422C42.0317 39.1422 41.8511 38.9842 41.8511 38.7585V5.66591C41.8511 5.46275 42.0091 5.28217 42.2348 5.28217C42.4606 5.28217 42.6186 5.44018 42.6186 5.66591V38.7585C42.6186 38.9616 42.438 39.1422 42.2348 39.1422Z" fill="#00327A"/>
<path d="M12.325 4.42438L45.5079 44.605C45.8465 45.0113 45.7788 45.5982 45.3724 45.9368C44.9661 46.2754 44.3792 46.2077 44.0406 45.8014L10.8578 5.62077C9.95484 4.53725 8.7133 3.92777 7.40405 3.79233C6.09479 3.67946 4.76296 4.04064 3.65687 4.94357C1.46725 6.74944 1.28667 10.0452 3.06996 12.2348L36.1625 52.3025C36.5011 52.7088 36.4334 53.2957 36.0271 53.6343C35.6207 53.9729 35.0338 53.9052 34.6952 53.4989L1.67041 13.4537C-0.790081 10.474 -0.519201 6.02709 2.43791 3.52145C3.92775 2.25734 5.80134 1.73815 7.60721 1.89617C9.36793 2.07675 11.0835 2.93454 12.325 4.42438Z" fill="#E27B00"/>
<path d="M36.9526 50.7449C36.7946 50.8804 36.5463 50.8578 36.4109 50.6998L3.09259 10.3386C2.95715 10.1806 2.97973 9.93229 3.13774 9.79685C3.29575 9.66141 3.54406 9.68398 3.6795 9.842L37.0204 50.2258C37.1558 50.3838 37.1332 50.6095 36.9526 50.7449Z" fill="#894700"/>
<path d="M37.359 48.465C37.201 48.6005 36.9527 48.5779 36.8172 48.4199L3.47638 8.03612C3.34094 7.87811 3.36352 7.6298 3.52153 7.49436C3.67954 7.35892 3.92785 7.38149 4.06329 7.53951L37.4042 47.9007C37.5396 48.0813 37.517 48.3296 37.359 48.465Z" fill="#894700"/>
<path d="M38.2394 46.7495C38.0814 46.8849 37.8331 46.8623 37.6976 46.7043L4.35675 6.34313C4.22131 6.18511 4.24389 5.93681 4.4019 5.80137C4.55992 5.66593 4.80822 5.6885 4.94366 5.84651L38.2845 46.2077C38.42 46.3883 38.3974 46.614 38.2394 46.7495Z" fill="#894700"/>
<path d="M40.0679 46.2077C39.9099 46.3431 39.6616 46.3206 39.5261 46.1626L6.20783 5.80136C6.07239 5.64335 6.09496 5.39504 6.25298 5.2596C6.41099 5.12416 6.6593 5.14674 6.79474 5.30475L40.1356 45.6659C40.271 45.8465 40.2485 46.0948 40.0679 46.2077Z" fill="#894700"/>
<path d="M42.3929 46.2528C42.2349 46.3883 41.9866 46.3657 41.8512 46.2077L8.51032 5.84651C8.37488 5.6885 8.39745 5.44019 8.55547 5.30475C8.71348 5.16931 8.96179 5.19189 9.09723 5.3499L42.4381 45.7111C42.5735 45.8917 42.551 46.1174 42.3929 46.2528Z" fill="#894700"/>
<path d="M87.0429 1.78329V36.0722H78.6908L64.7179 14.921V36.0722H56.3657V1.78329H64.7179L78.6908 23.0474V1.78329H87.0429Z" fill="#0058E5"/>
<path d="M109.323 36.4108C99.5938 36.4108 91.6931 29.1196 91.6931 18.8262C91.6931 8.53273 99.6164 1.28668 109.323 1.28668C119.097 1.28668 126.862 8.51016 126.862 18.8262C126.862 29.1422 119.029 36.4108 109.323 36.4108ZM109.323 28.8036C114.786 28.8036 118.352 24.8533 118.352 18.8262C118.352 12.7088 114.786 8.84876 109.323 8.84876C103.747 8.84876 100.226 12.7088 100.226 18.8262C100.226 24.8307 103.747 28.8036 109.323 28.8036Z" fill="#0058E5"/>
<path d="M154.853 1.78329H163.702L151.535 36.0722H141.084L128.917 1.78329H137.81L146.321 27.6749L154.853 1.78329Z" fill="#0058E5"/>
<path d="M188.51 30.0226H175.711L173.657 36.0722H164.921L177.336 1.78329H187.02L199.436 36.0722H190.587L188.51 30.0226ZM182.122 11.0158L177.923 23.5666H186.366L182.122 11.0158Z" fill="#0058E5"/>
<path d="M62.754 55.1919H56.1174V40.9707H62.5283C65.4177 40.9707 67.1558 42.4154 67.1558 44.6501C67.1558 46.3657 66.1174 47.4944 64.7405 47.9007C66.4109 48.2393 67.4718 49.7066 67.4718 51.3318C67.4718 53.6795 65.7563 55.1919 62.754 55.1919ZM61.8511 43.7472H59.5937V46.7269H61.8511C62.9797 46.7269 63.6118 46.2303 63.6118 45.237C63.6344 44.2664 63.0023 43.7472 61.8511 43.7472ZM62.0994 49.2551H59.5937V52.3928H62.1445C63.2958 52.3928 63.973 51.8736 63.973 50.8578C63.973 49.842 63.2506 49.2551 62.0994 49.2551Z" fill="#E27B00"/>
<path d="M79.5259 55.3725C76.2077 55.3725 73.6794 53.1377 73.6794 49.5485C73.6794 45.9594 76.2528 43.7246 79.5485 43.7246C82.8668 43.7246 85.4176 45.9594 85.4176 49.5485C85.4627 53.1377 82.8668 55.3725 79.5259 55.3725ZM79.5259 52.3702C80.7675 52.3702 81.9187 51.4673 81.9187 49.5485C81.9187 47.6298 80.7901 46.7269 79.5711 46.7269C78.307 46.7269 77.2235 47.6298 77.2235 49.5485C77.2235 51.4447 78.2844 52.3702 79.5259 52.3702Z" fill="#E27B00"/>
<path d="M97.359 55.3725C94.0407 55.3725 91.5125 53.1377 91.5125 49.5485C91.5125 45.9594 94.0858 43.7246 97.3815 43.7246C100.7 43.7246 103.251 45.9594 103.251 49.5485C103.273 53.1377 100.677 55.3725 97.359 55.3725ZM97.359 52.3702C98.6005 52.3702 99.7517 51.4673 99.7517 49.5485C99.7517 47.6298 98.6231 46.7269 97.4041 46.7269C96.14 46.7269 95.0565 47.6298 95.0565 49.5485C95.0339 51.4447 96.0948 52.3702 97.359 52.3702Z" fill="#E27B00"/>
<path d="M110.023 40.2032H113.499V48.4876L116.93 43.8826H121.196L116.479 49.5711L121.219 55.2145H116.93L113.476 50.4741V55.2145H110V40.2032H110.023Z" fill="#E27B00"/>
<path d="M132.596 55.3499C129.526 55.3499 127.133 53.8375 127.043 50.9481H130.722C130.813 52.0316 131.513 52.5734 132.483 52.5734C133.499 52.5734 134.154 52.0768 134.154 51.2415C134.154 48.6005 127.043 50.0226 127.088 44.9887C127.088 42.3025 129.3 40.7901 132.28 40.7901C135.373 40.7901 137.472 42.3251 137.607 45.0564H133.86C133.792 44.1535 133.16 43.5892 132.212 43.5666C131.377 43.544 130.745 43.9729 130.745 44.8533C130.745 47.3364 137.788 46.2077 137.788 50.9707C137.788 53.3634 135.914 55.3499 132.596 55.3499Z" fill="#E27B00"/>
<path d="M145.35 46.772H143.973V43.8826H145.35V41.1287H148.826V43.8826H151.106V46.772H148.826V51.3093C148.826 51.9865 149.12 52.2573 149.887 52.2573H151.129V55.1919H149.368C147.02 55.1919 145.372 54.1987 145.372 51.2641V46.772H145.35Z" fill="#E27B00"/>
<path d="M163.093 55.3725C159.774 55.3725 157.246 53.1377 157.246 49.5485C157.246 45.9594 159.819 43.7246 163.115 43.7246C166.433 43.7246 168.984 45.9594 168.984 49.5485C169.007 53.1377 166.411 55.3725 163.093 55.3725ZM163.093 52.3702C164.334 52.3702 165.485 51.4673 165.485 49.5485C165.485 47.6298 164.357 46.7269 163.138 46.7269C161.874 46.7269 160.79 47.6298 160.79 49.5485C160.79 51.4447 161.828 52.3702 163.093 52.3702Z" fill="#E27B00"/>
<path d="M179.233 55.1919H175.756V43.8826H179.233V45.7788C180.023 44.5824 181.264 43.7698 182.777 43.7698V47.4492H181.829C180.181 47.4492 179.233 48.0136 179.233 49.9549V55.1919Z" fill="#E27B00"/>
<path d="M194.357 55.3725C191.038 55.3725 188.646 53.1377 188.646 49.5485C188.646 45.9594 190.993 43.7246 194.357 43.7246C197.652 43.7246 200 45.9142 200 49.368C200 49.684 199.977 50.0452 199.932 50.3838H192.099C192.212 51.8736 193.138 52.5508 194.244 52.5508C195.214 52.5508 195.756 52.0542 196.05 51.4673H199.729C199.187 53.6569 197.178 55.3725 194.357 55.3725ZM192.122 48.4425H196.456C196.456 47.2009 195.485 46.5011 194.334 46.5011C193.183 46.5011 192.325 47.2009 192.122 48.4425Z" fill="#E27B00"/>
</g>
<defs>
<clipPath id="clip0_15_169">
<rect width="200" height="56.6592" fill="white"/>
</clipPath>
</defs>
</svg>
