<svg width="60" height="59" viewBox="0 0 60 59" fill="none" xmlns="http://www.w3.org/2000/svg">
<path d="M30 0.4375C46.0547 0.4375 59.0625 13.4453 59.0625 29.5C59.0625 45.5547 46.0547 58.5625 30 58.5625C13.9453 58.5625 0.9375 45.5547 0.9375 29.5C0.9375 13.4453 13.9453 0.4375 30 0.4375ZM43.2422 27.5078L27.4219 11.6875C26.3672 10.6328 24.4922 10.6328 23.4375 11.6875L21.4453 13.6797C20.3906 14.7344 20.3906 16.6094 21.4453 17.6641L33.3984 29.5L21.4453 41.4531C20.3906 42.5078 20.3906 44.3828 21.4453 45.4375L23.4375 47.4297C24.4922 48.4844 26.3672 48.4844 27.4219 47.4297L43.2422 31.4922C44.4141 30.4375 44.4141 28.6797 43.2422 27.5078Z" fill="#DEDBDB"/>
</svg>
